<?xml version="1.0" standalone="no"?>
<!DOCTYPE svg PUBLIC "-//W3C//DTD SVG 20010904//EN"
 "http://www.w3.org/TR/2001/REC-SVG-20010904/DTD/svg10.dtd">
<svg version="1.0" xmlns="http://www.w3.org/2000/svg"
 width="512.000000pt" height="512.000000pt" viewBox="0 0 512.000000 512.000000"
 preserveAspectRatio="xMidYMid meet">

<g transform="translate(0.000000,512.000000) scale(0.100000,-0.100000)"
fill="#000000" stroke="none">
<path d="M2321 5110 c-497 -48 -990 -251 -1376 -565 -114 -92 -294 -274 -384
-387 -229 -287 -417 -675 -495 -1023 -49 -218 -60 -325 -60 -575 0 -250 11
-357 60 -575 79 -355 272 -749 509 -1040 92 -114 274 -294 387 -384 287 -229
675 -417 1023 -495 218 -49 325 -60 575 -60 250 0 357 11 575 60 261 58 603
204 828 353 389 259 688 599 893 1016 125 255 196 484 241 775 24 161 24 539
0 700 -45 291 -116 520 -241 775 -134 272 -283 480 -498 692 -211 209 -404
346 -673 478 -252 124 -486 197 -765 240 -126 19 -468 27 -599 15z m-848 -632
c26 -13 57 -68 57 -101 0 -48 -26 -81 -127 -164 -496 -406 -801 -981 -868
-1637 -14 -145 -27 -173 -90 -194 -49 -16 -95 -2 -131 41 -27 32 -27 32 -21
152 31 606 356 1283 818 1705 232 213 281 239 362 198z m1307 -502 c315 -52
590 -194 806 -418 267 -276 404 -613 404 -998 0 -608 -362 -1127 -939 -1346
-297 -113 -685 -113 -982 0 -407 155 -700 448 -855 855 -113 297 -113 685 0
982 188 496 599 836 1116 924 103 17 346 18 450 1z m2109 -1272 c30 -25 31
-28 31 -113 0 -143 -37 -389 -86 -572 -72 -269 -176 -489 -327 -691 -75 -100
-140 -121 -187 -61 -35 44 -26 81 38 167 169 224 279 489 341 826 23 125 41
267 41 331 0 63 17 107 49 124 39 21 66 18 100 -11z"/>
<path d="M2495 3504 c-11 -2 -45 -9 -75 -15 -157 -31 -295 -130 -359 -257 -53
-105 -64 -247 -27 -350 36 -99 131 -203 235 -257 40 -20 42 -17 -61 -75 -85
-48 -180 -146 -217 -223 -140 -295 17 -599 359 -693 90 -25 309 -25 400 -1
302 82 477 336 419 609 -32 150 -132 266 -298 348 -33 17 -61 32 -61 34 0 2
26 19 57 36 83 47 168 136 204 215 37 79 50 204 29 282 -46 173 -184 297 -376
338 -64 14 -182 18 -229 9z m182 -189 c59 -18 135 -81 163 -135 41 -81 41
-210 -1 -291 -30 -59 -100 -123 -175 -160 -61 -30 -67 -31 -107 -19 -198 59
-307 172 -307 320 0 110 28 173 102 233 77 62 216 84 325 52z m-66 -825 c195
-71 284 -160 311 -310 28 -161 -56 -306 -209 -362 -82 -30 -226 -30 -304 1
-78 30 -142 89 -179 165 -27 54 -32 76 -33 142 -1 136 53 241 160 315 42 29
145 78 165 79 4 0 44 -13 89 -30z"/>
</g>
</svg>
